# xmcd
#
# Track frame offsets: 
#        150
#        16484
#        43305
#        45293
#        63934
#        72012
#        85072
#        101628
#        109136
#        161494
#        179296
#        201722
#        222757
#        244025
#        267094
#        292052
#        312852
#        335067
#
# Disc length: 4551 seconds
#
# Revision: 1
# Processed by: cddbd v1.5.2PL0 Copyright (c) Steve Scherf et al.
# Submitted via: ExactAudioCopy v0.99pb5
#
DISCID=0911c512
DTITLE=Miles Davis - Miles Davis 1986-1991 The Warner Years [Disc 4]
DYEAR=2011
DGENRE=Jazz
TTITLE0=Miles Ahead (Live Album Version)
TTITLE1=Blues For Pablo (Live Album Version)
TTITLE2=Introduction To Porgy And Bess Medley (Live Album Version)
TTITLE3=Orgone (Live Album Version)
TTITLE4=Gone, Gone Gone (Live Album Version)
TTITLE5=Summertime (Live Album Version)
TTITLE6=Here Come De Honey Man (Live Album Version)
TTITLE7=The Pan Piper (Live Album Version)
TTITLE8=Solea (Live Album Version)
TTITLE9=Mystery
TTITLE10=The Doo-Bop Song
TTITLE11=Chocolate Chip
TTITLE12=High Speed Chase
TTITLE13=Blow
TTITLE14=Sonya
TTITLE15=Fantasy
TTITLE16=Duke Booty
TTITLE17=Mystery (Reprise)
EXTD=YEAR: 2011
EXTT0=
EXTT1=
EXTT2=
EXTT3=
EXTT4=
EXTT5=
EXTT6=
EXTT7=
EXTT8=
EXTT9=
EXTT10=
EXTT11=
EXTT12=
EXTT13=
EXTT14=
EXTT15=
EXTT16=
EXTT17=
PLAYORDER=
